<?xml version="1.0" standalone="no"?>
<!DOCTYPE svg PUBLIC "-//W3C//DTD SVG 20010904//EN"
 "http://www.w3.org/TR/2001/REC-SVG-20010904/DTD/svg10.dtd">
<svg version="1.0" xmlns="http://www.w3.org/2000/svg"
 width="1079.000000pt" height="223.000000pt" viewBox="0 0 1079.000000 223.000000"
 preserveAspectRatio="xMidYMid meet">

<g transform="translate(0.000000,223.000000) scale(0.100000,-0.100000)"
fill="#000000" stroke="none">
<path d="M768 2030 c-151 -27 -287 -98 -393 -205 -122 -122 -182 -249 -192
-410 -5 -81 -9 -93 -36 -124 -27 -31 -29 -39 -25 -94 4 -54 8 -63 41 -94 21
-18 51 -36 67 -39 35 -7 41 -15 64 -72 24 -62 76 -139 129 -193 l46 -46 -45
-34 c-135 -101 -254 -333 -254 -495 l0 -34 725 0 725 0 0 43 c0 61 -33 184
-68 254 -41 81 -111 170 -170 219 l-51 41 45 44 c56 55 111 137 140 209 20 48
27 56 59 64 45 10 91 56 106 105 14 46 1 96 -36 139 -18 22 -26 48 -34 118
-18 158 -70 270 -178 385 -94 99 -205 165 -348 206 -61 17 -253 25 -317 13z
m591 -457 c62 -76 133 -248 118 -288 -3 -7 -55 -45 -115 -84 l-110 -72 -346 1
-346 0 -115 76 c-101 66 -115 78 -114 102 1 57 10 64 100 82 97 20 215 65 300
115 33 19 62 35 64 35 3 0 -4 -23 -16 -51 -11 -29 -17 -54 -14 -57 11 -11 190
20 278 48 51 17 133 52 182 79 50 28 93 50 97 50 3 1 20 -15 37 -36z m-1114
-432 c-3 -2 -14 4 -25 14 -25 22 -26 72 -2 98 16 19 17 17 24 -44 4 -35 5 -65
3 -68z m1353 95 c15 -31 2 -80 -24 -90 -11 -4 -14 8 -14 60 0 71 13 82 38 30z
m-1166 -78 l98 -63 0 -137 c0 -76 -4 -138 -8 -138 -14 0 -89 84 -121 135 -43
67 -98 265 -75 265 4 0 51 -28 106 -62z m1038 -43 c-17 -80 -72 -183 -134
-251 l-55 -59 -1 133 c0 72 -1 135 -2 140 -2 4 42 37 97 74 97 65 100 67 103
42 2 -13 -2 -49 -8 -79z m-252 -37 c18 -18 17 -292 -2 -307 -9 -8 -103 -11
-322 -9 l-309 3 -3 150 c-1 82 0 155 2 162 7 18 616 19 634 1z m-123 -367
c-20 -17 -106 -31 -195 -31 -89 0 -175 14 -194 31 -6 5 79 9 194 9 115 0 200
-4 195 -9z"/>
<path d="M595 1345 c-74 -74 23 -193 114 -139 55 33 63 92 18 142 -30 32 -99
31 -132 -3z"/>
<path d="M1075 1344 c-74 -80 29 -193 122 -135 80 50 42 161 -54 161 -35 0
-49 -6 -68 -26z"/>
<path d="M683 999 c-6 -6 -9 -18 -6 -25 4 -11 47 -14 223 -14 220 0 246 4 220
35 -10 12 -50 15 -219 15 -140 0 -211 -4 -218 -11z"/>
<path d="M680 870 c0 -20 4 -20 223 -18 189 3 222 5 222 18 0 13 -33 15 -222
18 -219 2 -223 2 -223 -18z"/>
<path d="M2625 1735 c-140 -26 -231 -73 -318 -164 -60 -63 -94 -127 -118 -221
-19 -74 -20 -551 -1 -629 44 -189 182 -322 392 -378 89 -24 290 -24 379 1 114
31 206 88 236 147 8 15 15 49 15 74 0 39 -5 52 -38 86 -53 57 -93 61 -197 18
-90 -37 -209 -50 -283 -30 -52 14 -106 60 -135 115 -21 39 -22 53 -22 281 0
228 1 242 22 281 29 55 83 101 135 115 64 17 193 6 253 -21 128 -58 245 -3
245 116 0 158 -280 262 -565 209z"/>
<path d="M3775 1739 c-120 -20 -274 -101 -333 -177 -45 -56 -82 -137 -98 -211
-19 -92 -19 -540 0 -633 53 -248 267 -398 569 -398 303 0 524 164 567 420 18
106 8 590 -13 653 -87 258 -371 400 -692 346z m267 -324 c24 -17 54 -51 68
-75 24 -44 25 -52 28 -267 4 -262 -3 -312 -55 -372 -91 -107 -228 -114 -331
-17 -65 60 -67 68 -70 321 -4 258 3 312 48 367 48 58 101 80 192 76 66 -3 82
-7 120 -33z"/>
<path d="M4667 1736 c-21 -8 -48 -22 -59 -33 -29 -26 -58 -87 -58 -122 0 -17
102 -301 227 -631 l227 -600 175 0 176 0 223 603 c122 331 222 616 222 632 0
17 -10 51 -22 75 -57 110 -234 118 -301 13 -22 -33 -63 -156 -260 -773 l-30
-95 -141 427 c-127 384 -145 431 -176 463 -52 53 -126 68 -203 41z"/>
<path d="M6005 1738 c-37 -13 -72 -44 -93 -83 -15 -27 -17 -96 -20 -668 l-3
-637 181 0 180 0 0 640 c0 689 1 668 -52 716 -45 41 -128 55 -193 32z"/>
<path d="M9124 1736 c-35 -15 -51 -35 -95 -113 -36 -64 -87 -97 -188 -118 -90
-19 -126 -39 -147 -83 -26 -55 -14 -119 29 -158 45 -42 91 -54 205 -54 l92 0
0 -430 0 -430 175 0 176 0 -3 637 -3 638 -23 41 c-13 22 -37 49 -53 58 -40 24
-126 30 -165 12z"/>
<path d="M10004 1735 c-141 -31 -251 -114 -307 -232 -30 -65 -32 -75 -35 -211
-5 -168 7 -243 50 -325 37 -69 83 -111 158 -145 96 -44 271 -41 370 7 l40 19
0 -49 c0 -108 -51 -161 -162 -167 -49 -3 -86 2 -137 17 -128 39 -209 22 -244
-52 -68 -143 75 -259 338 -274 275 -15 467 107 520 328 11 50 15 133 15 379 0
346 -8 411 -57 501 -90 166 -325 253 -549 204z m212 -300 c42 -27 64 -88 64
-181 0 -68 -4 -87 -23 -115 -63 -94 -198 -88 -250 12 -26 50 -21 206 9 246 45
61 137 79 200 38z"/>
<path d="M6571 1725 c-56 -18 -96 -56 -118 -114 -16 -42 -18 -93 -18 -566 0
-478 1 -524 18 -567 25 -64 72 -104 143 -118 85 -18 481 -8 557 14 226 64 359
211 408 451 18 89 15 372 -5 465 -24 108 -77 210 -144 279 -66 67 -124 103
-225 139 -69 25 -82 26 -322 29 -194 2 -260 -1 -294 -12z m481 -301 c57 -19
113 -72 141 -133 20 -42 22 -63 22 -241 0 -183 -1 -198 -23 -245 -28 -61 -64
-100 -117 -128 -34 -19 -57 -22 -160 -22 l-120 0 -3 380 c-1 209 0 386 3 392
7 20 199 17 257 -3z"/>
<path d="M7755 1181 c-100 -43 -107 -213 -12 -271 30 -19 52 -20 382 -20 330
0 352 1 382 20 80 48 92 176 24 244 l-31 31 -363 2 c-199 1 -371 -2 -382 -6z"/>
</g>
</svg>
