<?xml version="1.0" standalone="no"?>
<!DOCTYPE svg PUBLIC "-//W3C//DTD SVG 20010904//EN"
 "http://www.w3.org/TR/2001/REC-SVG-20010904/DTD/svg10.dtd">
<svg version="1.0" xmlns="http://www.w3.org/2000/svg"
 width="1174.000000pt" height="240.000000pt" viewBox="0 0 1174.000000 240.000000"
 preserveAspectRatio="xMidYMid meet">

<g transform="translate(0.000000,240.000000) scale(0.100000,-0.100000)"
fill="#000000" stroke="none">
<path d="M3275 1885 c-140 -26 -231 -73 -318 -164 -60 -63 -94 -127 -118 -221
-19 -74 -20 -551 -1 -629 44 -189 182 -322 392 -378 89 -24 290 -24 379 1 114
31 206 88 236 147 8 15 15 49 15 74 0 39 -5 52 -38 86 -53 57 -93 61 -197 18
-90 -37 -209 -50 -283 -30 -52 14 -106 60 -135 115 -21 39 -22 53 -22 281 0
228 1 242 22 281 29 55 83 101 135 115 64 17 193 6 253 -21 128 -58 245 -3
245 116 0 158 -280 262 -565 209z"/>
<path d="M4425 1889 c-120 -20 -274 -101 -333 -177 -45 -56 -82 -137 -98 -211
-19 -92 -19 -540 0 -633 53 -248 267 -398 569 -398 303 0 524 164 567 420 18
106 8 590 -13 653 -87 258 -371 400 -692 346z m267 -324 c24 -17 54 -51 68
-75 24 -44 25 -52 28 -267 4 -262 -3 -312 -55 -372 -91 -107 -228 -114 -331
-17 -65 60 -67 68 -70 321 -4 258 3 312 48 367 48 58 101 80 192 76 66 -3 82
-7 120 -33z"/>
<path d="M5317 1886 c-21 -8 -48 -22 -59 -33 -29 -26 -58 -87 -58 -122 0 -17
102 -301 227 -631 l227 -600 175 0 176 0 223 603 c122 331 222 616 222 632 0
17 -10 51 -22 75 -57 110 -234 118 -301 13 -22 -33 -63 -156 -260 -773 l-30
-95 -141 427 c-127 384 -145 431 -176 463 -52 53 -126 68 -203 41z"/>
<path d="M6655 1888 c-37 -13 -72 -44 -93 -83 -15 -27 -17 -96 -20 -668 l-3
-637 181 0 180 0 0 640 c0 689 1 668 -52 716 -45 41 -128 55 -193 32z"/>
<path d="M9774 1886 c-35 -15 -51 -35 -95 -113 -36 -64 -87 -97 -188 -118 -90
-19 -126 -39 -147 -83 -26 -55 -14 -119 29 -158 45 -42 91 -54 205 -54 l92 0
0 -430 0 -430 175 0 176 0 -3 637 -3 638 -23 41 c-13 22 -37 49 -53 58 -40 24
-126 30 -165 12z"/>
<path d="M10654 1885 c-141 -31 -251 -114 -307 -232 -30 -65 -32 -75 -35 -211
-5 -168 7 -243 50 -325 37 -69 83 -111 158 -145 96 -44 271 -41 370 7 l40 19
0 -49 c0 -108 -51 -161 -162 -167 -49 -3 -86 2 -137 17 -128 39 -209 22 -244
-52 -68 -143 75 -259 338 -274 275 -15 467 107 520 328 11 50 15 133 15 379 0
346 -8 411 -57 501 -90 166 -325 253 -549 204z m212 -300 c42 -27 64 -88 64
-181 0 -68 -4 -87 -23 -115 -63 -94 -198 -88 -250 12 -26 50 -21 206 9 246 45
61 137 79 200 38z"/>
<path d="M7221 1875 c-56 -18 -96 -56 -118 -114 -16 -42 -18 -93 -18 -566 0
-478 1 -524 18 -567 25 -64 72 -104 143 -118 85 -18 481 -8 557 14 226 64 359
211 408 451 18 89 15 372 -5 465 -24 108 -77 210 -144 279 -66 67 -124 103
-225 139 -69 25 -82 26 -322 29 -194 2 -260 -1 -294 -12z m481 -301 c57 -19
113 -72 141 -133 20 -42 22 -63 22 -241 0 -183 -1 -198 -23 -245 -28 -61 -64
-100 -117 -128 -34 -19 -57 -22 -160 -22 l-120 0 -3 380 c-1 209 0 386 3 392
7 20 199 17 257 -3z"/>
<path d="M715 1726 c-44 -19 -103 -90 -116 -139 l-12 -42 -66 -1 c-161 -1
-296 -130 -337 -322 -17 -84 -17 -110 1 -197 29 -136 100 -236 206 -291 44
-23 67 -28 130 -28 l75 -1 30 -49 c20 -34 43 -57 73 -73 l44 -23 619 0 c503 0
625 3 651 14 36 15 79 57 101 100 14 27 18 29 88 30 87 2 142 24 209 84 81 72
139 212 139 337 0 228 -158 419 -346 420 l-63 0 -11 41 c-16 55 -64 112 -114
135 -38 17 -79 19 -656 18 -485 0 -621 -3 -645 -13z m-147 -254 c9 -7 12 -84
10 -353 l-3 -344 -60 1 c-76 1 -128 27 -188 94 -66 73 -91 143 -91 255 0 71 5
103 24 150 31 80 117 167 186 189 55 16 103 20 122 8z m1736 -19 c55 -28 86
-56 120 -107 118 -174 70 -441 -96 -536 -56 -32 -122 -46 -163 -36 l-25 6 0
344 c0 390 -7 359 84 350 27 -3 63 -12 80 -21z"/>
<path d="M8405 1331 c-100 -43 -107 -213 -12 -271 30 -19 52 -20 382 -20 330
0 352 1 382 20 80 48 92 176 24 244 l-31 31 -363 2 c-199 1 -371 -2 -382 -6z"/>
</g>
</svg>
